<svg id="Layer_1" data-name="Layer 1" xmlns="http://www.w3.org/2000/svg" viewBox="0 0 150 150"><defs><style>.cls-1{fill:#303030;}</style></defs><title>UI_Icons_v1</title><path class="cls-1" d="M75,2.4A72.6,72.6,0,1,0,147.6,75,72.61,72.61,0,0,0,75,2.4Zm55.47,110A67.15,67.15,0,0,1,101,136.64a67.2,67.2,0,0,1-52.08,0A67.15,67.15,0,0,1,13.36,101a67.2,67.2,0,0,1,0-52.08A67.15,67.15,0,0,1,49,13.36a67.2,67.2,0,0,1,52.08,0A67.15,67.15,0,0,1,136.64,49a67.2,67.2,0,0,1,0,52.08A67.14,67.14,0,0,1,130.47,112.4Z"/><path class="cls-1" d="M55.16,73.87a28.08,28.08,0,1,0,0-39.67,28,28,0,0,0,0,39.67Z"/><path class="cls-1" d="M116.28,115.28a50.58,50.58,0,0,0-1.91-6,48.21,48.21,0,0,0-3.94-7.87,46.81,46.81,0,0,0-5.22-6.86,43.38,43.38,0,0,0-6.33-5.66,41.83,41.83,0,0,0-7.25-4.28l-1.47-.64c-.7.35-1.4.68-2.12,1A33.52,33.52,0,0,1,62,84.9c-.72-.3-1.42-.63-2.11-1l-1.48.64a41.21,41.21,0,0,0-7.25,4.28,43.38,43.38,0,0,0-6.33,5.66,46.81,46.81,0,0,0-5.22,6.86,48.21,48.21,0,0,0-3.94,7.87,50.58,50.58,0,0,0-1.91,6,2.28,2.28,0,0,0,.67,2.24,62.68,62.68,0,0,0,15.69,10.3,59.6,59.6,0,0,0,49.84,0,62.68,62.68,0,0,0,15.69-10.3A2.28,2.28,0,0,0,116.28,115.28Z"/></svg>